<svg width="21" height="22" viewBox="0 0 21 22" fill="none" xmlns="http://www.w3.org/2000/svg">
<mask id="mask0_1437_2" style="mask-type:luminance" maskUnits="userSpaceOnUse" x="0" y="0" width="21" height="22">
<path fill-rule="evenodd" clip-rule="evenodd" d="M0.916687 0.958525H20.5623V21.5675H0.916687V0.958525Z" fill="white"/>
</mask>
<g mask="url(#mask0_1437_2)">
<path fill-rule="evenodd" clip-rule="evenodd" d="M12.1453 14.6542C13.2991 14.6542 14.2383 15.5866 14.2383 16.7328V19.6806C14.2383 19.9269 14.4357 20.1243 14.6887 20.1301H16.5153C17.9547 20.1301 19.1248 18.9743 19.1248 17.5541V9.19358C19.1181 8.70483 18.8853 8.24483 18.4856 7.93912L12.1673 2.9002C11.3192 2.22841 10.1328 2.22841 9.2818 2.90212L3.00663 7.9372C2.59167 8.2525 2.3588 8.7125 2.354 9.20987V17.5541C2.354 18.9743 3.52413 20.1301 4.96355 20.1301H6.80738C7.06709 20.1301 7.27792 19.924 7.27792 19.671C7.27792 19.6155 7.28463 19.5599 7.29613 19.5072V16.7328C7.29613 15.5933 8.22955 14.6618 9.37475 14.6542H12.1453ZM16.5153 21.5676H14.6715C13.6154 21.5427 12.8008 20.7137 12.8008 19.6806V16.7328C12.8008 16.3792 12.5066 16.0917 12.1453 16.0917H9.37955C9.02592 16.0936 8.73363 16.382 8.73363 16.7328V19.671C8.73363 19.7429 8.72405 19.8119 8.70392 19.8771C8.60042 20.8258 7.78967 21.5676 6.80738 21.5676H4.96355C2.73159 21.5676 0.916504 19.7669 0.916504 17.5541V9.20316C0.926087 8.25058 1.365 7.3785 2.12305 6.80445L8.38575 1.778C9.7648 0.685496 11.6863 0.685496 13.0624 1.77608L19.3702 6.80733C20.111 7.37179 20.5499 8.24195 20.5623 9.18304V17.5541C20.5623 19.7669 18.7473 21.5676 16.5153 21.5676V21.5676Z" fill="black" fill-opacity="0.5"/>
</g>
</svg>
